<svg width="1200" height="600" viewBox="0 0 1200 600" xmlns="http://www.w3.org/2000/svg"><mask id="satori_om-id"><rect x="0" y="0" width="1200" height="600" fill="#fff"/></mask><rect x="0" y="0" width="1200" height="600" fill="#21e794"/><mask id="satori_om-id-0"><rect x="400" y="223" width="401" height="96" fill="#fff"/></mask><path fill="#fff" d="M405.1 239.7L417.4 239.7L417.4 297.9L405.1 297.9L405.1 239.7ZM439.4 272.7L439.4 272.7L439.4 297.9L427.3 297.9L427.3 254.2L438.8 254.2L438.8 261.9L439.3 261.9Q440.8 258.1 444.2 255.9Q447.6 253.7 452.4 253.7L452.4 253.7Q457.0 253.7 460.4 255.7Q463.8 257.7 465.6 261.3Q467.5 265.0 467.5 270.1L467.5 270.1L467.5 297.9L455.4 297.9L455.4 272.3Q455.4 268.2 453.4 266.0Q451.3 263.7 447.6 263.7L447.6 263.7Q445.2 263.7 443.3 264.8Q441.5 265.8 440.4 267.8Q439.4 269.8 439.4 272.7ZM489.1 272.7L489.1 272.7L489.1 297.9L477.0 297.9L477.0 254.2L488.6 254.2L488.6 261.9L489.1 261.9Q490.5 258.1 493.9 255.9Q497.3 253.7 502.2 253.7L502.2 253.7Q506.7 253.7 510.1 255.7Q513.5 257.7 515.4 261.3Q517.2 265.0 517.2 270.1L517.2 270.1L517.2 297.9L505.1 297.9L505.1 272.3Q505.2 268.2 503.1 266.0Q501.0 263.7 497.4 263.7L497.4 263.7Q494.9 263.7 493.1 264.8Q491.2 265.8 490.2 267.8Q489.1 269.8 489.1 272.7ZM546.5 298.7L546.5 298.7Q539.9 298.7 535.0 295.9Q530.2 293.1 527.6 288.0Q525.0 282.9 525.0 276.2L525.0 276.2Q525.0 269.5 527.6 264.4Q530.2 259.3 535.0 256.5Q539.9 253.7 546.5 253.7L546.5 253.7Q553.1 253.7 557.9 256.5Q562.7 259.3 565.3 264.4Q568.0 269.5 568.0 276.2L568.0 276.2Q568.0 282.9 565.3 288.0Q562.7 293.1 557.9 295.9Q553.1 298.7 546.5 298.7ZM546.5 289.4L546.5 289.4Q549.5 289.4 551.6 287.6Q553.6 285.9 554.6 282.9Q555.7 280.0 555.7 276.1L555.7 276.1Q555.7 272.3 554.6 269.4Q553.6 266.4 551.6 264.6Q549.5 262.9 546.5 262.9L546.5 262.9Q543.5 262.9 541.4 264.6Q539.4 266.4 538.3 269.4Q537.3 272.3 537.3 276.1L537.3 276.1Q537.3 280.0 538.3 282.9Q539.4 285.9 541.4 287.6Q543.5 289.4 546.5 289.4ZM619.4 256.4L607.6 256.4Q607.3 253.0 604.7 251.1Q602.1 249.2 597.7 249.2L597.7 249.2Q594.7 249.2 592.6 250.0Q590.5 250.9 589.4 252.3Q588.4 253.8 588.4 255.7L588.4 255.7Q588.3 257.3 589.0 258.4Q589.7 259.6 591.0 260.4Q592.3 261.3 594.0 261.9Q595.7 262.5 597.6 262.9L597.6 262.9L602.8 264.2Q606.6 265.0 609.8 266.4Q613.0 267.9 615.3 269.9Q617.6 272.0 618.9 274.8Q620.2 277.6 620.2 281.3L620.2 281.3Q620.2 286.6 617.5 290.5Q614.8 294.4 609.8 296.6Q604.7 298.7 597.6 298.7L597.6 298.7Q590.6 298.7 585.4 296.5Q580.2 294.4 577.3 290.1Q574.3 285.9 574.2 279.6L574.2 279.6L586.1 279.6Q586.3 282.5 587.8 284.5Q589.3 286.4 591.8 287.4Q594.3 288.4 597.5 288.4L597.5 288.4Q600.6 288.4 602.9 287.5Q605.3 286.6 606.5 285.0Q607.8 283.3 607.8 281.2L607.8 281.2Q607.8 279.3 606.7 277.9Q605.5 276.6 603.3 275.7Q601.1 274.7 597.9 274.0L597.9 274.0L591.6 272.4Q584.2 270.6 580.0 266.8Q575.7 263.0 575.7 256.5L575.7 256.5Q575.7 251.2 578.6 247.3Q581.4 243.3 586.4 241.1Q591.4 238.9 597.8 238.9L597.8 238.9Q604.3 238.9 609.1 241.1Q613.9 243.3 616.6 247.3Q619.3 251.2 619.4 256.4L619.4 256.4ZM640.3 272.7L640.3 272.7L640.3 297.9L628.2 297.9L628.2 239.7L640.0 239.7L640.0 261.9L640.5 261.9Q642.0 258.1 645.3 255.9Q648.6 253.7 653.6 253.7L653.6 253.7Q658.1 253.7 661.5 255.7Q664.9 257.6 666.8 261.3Q668.7 265.0 668.6 270.1L668.6 270.1L668.6 297.9L656.5 297.9L656.5 272.3Q656.6 268.2 654.5 266.0Q652.4 263.7 648.8 263.7L648.8 263.7Q646.3 263.7 644.4 264.8Q642.5 265.8 641.4 267.8Q640.4 269.8 640.3 272.7ZM698.1 298.7L698.1 298.7Q691.3 298.7 686.5 296.0Q681.6 293.2 679.0 288.2Q676.4 283.2 676.4 276.3L676.4 276.3Q676.4 269.5 679.0 264.4Q681.6 259.4 686.4 256.5Q691.2 253.7 697.6 253.7L697.6 253.7Q701.9 253.7 705.6 255.1Q709.4 256.4 712.2 259.2Q715.0 261.9 716.5 266.1Q718.1 270.3 718.1 275.8L718.1 275.8L718.1 279.2L681.3 279.2L681.3 271.7L706.7 271.7Q706.7 269.0 705.6 267.0Q704.4 265.0 702.4 263.9Q700.4 262.7 697.8 262.7L697.8 262.7Q695.0 262.7 692.9 264.0Q690.8 265.2 689.6 267.4Q688.4 269.5 688.4 272.1L688.4 272.1L688.4 279.2Q688.4 282.4 689.6 284.8Q690.8 287.1 693.0 288.4Q695.2 289.7 698.3 289.7L698.3 289.7Q700.3 289.7 702.0 289.1Q703.6 288.6 704.8 287.4Q706.0 286.3 706.6 284.6L706.6 284.6L717.8 285.4Q717.0 289.4 714.4 292.4Q711.7 295.4 707.6 297.1Q703.5 298.7 698.1 298.7ZM745.9 298.7L745.9 298.7Q739.1 298.7 734.3 296.0Q729.5 293.2 726.8 288.2Q724.2 283.2 724.2 276.3L724.2 276.3Q724.2 269.5 726.8 264.4Q729.5 259.4 734.2 256.5Q739.0 253.7 745.4 253.7L745.4 253.7Q749.7 253.7 753.5 255.1Q757.2 256.4 760.0 259.2Q762.8 261.9 764.3 266.1Q765.9 270.3 765.9 275.8L765.9 275.8L765.9 279.2L729.1 279.2L729.1 271.7L754.5 271.7Q754.5 269.0 753.4 267.0Q752.2 265.0 750.2 263.9Q748.2 262.7 745.6 262.7L745.6 262.7Q742.8 262.7 740.7 264.0Q738.6 265.2 737.4 267.4Q736.2 269.5 736.2 272.1L736.2 272.1L736.2 279.2Q736.2 282.4 737.4 284.8Q738.6 287.1 740.8 288.4Q743.0 289.7 746.1 289.7L746.1 289.7Q748.1 289.7 749.8 289.1Q751.4 288.6 752.6 287.4Q753.8 286.3 754.5 284.6L754.5 284.6L765.7 285.4Q764.8 289.4 762.2 292.4Q759.5 295.4 755.4 297.1Q751.3 298.7 745.9 298.7ZM770.7 254.2L797.0 254.2L797.0 263.3L770.7 263.3L770.7 254.2ZM776.7 286.1L776.7 243.8L788.8 243.8L788.8 284.5Q788.8 286.1 789.3 287.1Q789.8 288.0 790.8 288.4Q791.7 288.7 792.9 288.7L792.9 288.7Q793.8 288.7 794.6 288.6Q795.5 288.4 795.9 288.3L795.9 288.3L797.8 297.3Q796.9 297.6 795.3 298.0Q793.6 298.4 791.3 298.5L791.3 298.5Q786.9 298.6 783.6 297.3Q780.3 296.0 778.5 293.2Q776.7 290.4 776.7 286.1L776.7 286.1Z "/><mask id="satori_om-id-1"><rect x="243" y="319" width="714" height="58" fill="#fff"/></mask><path fill="#fff" d="M257.8 339.8L250.5 362.2L244.0 362.2L254.0 333.2L261.9 333.2L271.9 362.2L265.4 362.2L258.1 339.8L257.8 339.8ZM250.1 355.6L250.1 350.8L265.7 350.8L265.7 355.6L250.1 355.6ZM275.4 333.2L281.6 333.2L281.6 362.2L275.4 362.2L275.4 333.2Z M305.1 332.0L305.1 332.0Q307.7 332.0 309.7 333.5Q311.8 335.0 312.9 337.9L312.9 337.9Q313.8 340.1 314.0 343.0L314.0 343.0L321.9 343.0L321.9 329.2L325.2 329.2L325.2 365.4L321.9 365.4L321.9 345.6L314.0 345.6Q313.9 348.8 312.9 351.2L312.9 351.2Q311.8 354.1 309.7 355.6Q307.7 357.2 305.1 357.2L305.1 357.2Q302.5 357.2 300.4 355.6Q298.3 354.1 297.2 351.2Q296.1 348.4 296.1 344.6Q296.1 340.7 297.2 337.9Q298.3 335.0 300.4 333.5Q302.5 332.0 305.1 332.0ZM305.1 334.9L305.1 334.9Q303.3 334.9 302.0 336.1Q300.7 337.3 300.0 339.5Q299.2 341.6 299.2 344.6Q299.2 347.5 300.0 349.7Q300.7 351.8 302.0 353.0Q303.3 354.2 305.1 354.2L305.1 354.2Q306.8 354.2 308.1 353.0Q309.5 351.8 310.2 349.7Q310.9 347.5 310.9 344.6Q310.9 341.6 310.2 339.5Q309.5 337.3 308.1 336.1Q306.8 334.9 305.1 334.9ZM341.7 338.8L341.7 332.3L345.1 332.3L345.1 338.8Q345.1 341.2 345.8 343.6Q346.5 346.0 347.9 348.2Q349.2 350.3 351.0 351.9Q352.7 353.6 354.7 354.5L354.7 354.5L352.7 357.1Q350.5 356.1 348.6 354.2Q346.7 352.3 345.3 349.9L345.3 349.9Q344.2 348.0 343.5 345.8L343.5 345.8Q342.7 348.2 341.5 350.3L341.5 350.3Q340.1 352.8 338.2 354.8Q336.3 356.7 334.1 357.8L334.1 357.8L332.0 355.1Q334.1 354.2 335.8 352.4Q337.6 350.7 338.9 348.5Q340.2 346.4 341.0 343.8Q341.7 341.3 341.7 338.8L341.7 338.8ZM358.5 365.4L358.5 329.2L361.8 329.2L361.8 365.4L358.5 365.4ZM383.5 334.4L383.5 331.6L387.0 331.6L387.0 334.4Q387.0 336.3 387.7 338.0Q388.5 339.8 389.8 341.3Q391.1 342.8 392.8 344.0Q394.5 345.2 396.4 346.1Q398.3 347.0 400.2 347.3L400.2 347.3L398.7 350.1Q396.5 349.6 394.4 348.6Q392.3 347.6 390.5 346.1Q388.6 344.7 387.2 342.8L387.2 342.8Q386.0 341.4 385.3 339.7L385.3 339.7Q384.5 341.4 383.4 342.8L383.4 342.8Q381.9 344.7 380.1 346.1Q378.2 347.6 376.1 348.6Q374.0 349.6 371.9 350.1L371.9 350.1L370.4 347.3Q372.3 346.9 374.2 346.1Q376.1 345.2 377.7 344.0Q379.4 342.8 380.7 341.3Q382.0 339.8 382.8 338.0Q383.5 336.3 383.5 334.4L383.5 334.4ZM369.0 360.5L369.0 357.7L401.8 357.7L401.8 360.5L369.0 360.5ZM407.7 350.4L407.7 332.0L423.8 332.0L423.8 334.7L410.9 334.7L410.9 339.6L422.8 339.6L422.8 342.3L410.9 342.3L410.9 347.6Q414.0 347.6 416.4 347.5L416.4 347.5Q418.9 347.4 421.2 347.2Q423.4 347.0 425.7 346.6L425.7 346.6L426.0 349.3Q423.6 349.8 421.4 350.0Q419.1 350.2 416.5 350.3Q413.8 350.4 410.3 350.4L410.3 350.4L407.7 350.4ZM425.3 342.0L425.3 339.4L432.3 339.4L432.3 329.2L435.6 329.2L435.6 356.0L432.3 356.0L432.3 342.0L425.3 342.0ZM412.4 364.6L412.4 353.8L415.7 353.8L415.7 361.8L436.5 361.8L436.5 364.6L412.4 364.6ZM446.8 351.4L446.8 332.3L471.3 332.3L471.3 335.0L450.2 335.0L450.2 340.3L470.5 340.3L470.5 343.0L450.2 343.0L450.2 348.7L471.7 348.7L471.7 351.4L446.8 351.4ZM442.6 360.7L442.6 357.9L475.4 357.9L475.4 360.7L442.6 360.7ZM503.9 365.3L503.9 329.2L507.2 329.2L507.2 343.8L513.0 343.8L513.0 346.6L507.2 346.6L507.2 365.3L503.9 365.3ZM481.3 335.8L481.3 333.0L497.9 333.0Q497.9 338.2 496.2 342.9Q494.5 347.6 490.9 351.6Q487.3 355.6 481.5 358.5L481.5 358.5L479.6 355.9Q484.7 353.4 488.0 350.0Q491.3 346.6 493.0 342.5L493.0 342.5Q494.3 339.4 494.6 335.8L494.6 335.8L481.3 335.8Z M530.8 364.9L530.8 353.0L553.6 353.0L553.6 364.9L530.8 364.9ZM536.2 337.5L536.2 337.5Q538.8 337.5 540.8 338.3Q542.7 339.1 543.8 340.5Q544.9 342.0 544.9 343.9L544.9 343.9Q544.9 345.9 543.8 347.3Q542.7 348.8 540.8 349.6Q538.8 350.4 536.2 350.4Q533.6 350.4 531.7 349.6Q529.8 348.8 528.7 347.3Q527.6 345.9 527.6 343.9L527.6 343.9Q527.6 342.0 528.7 340.5Q529.8 339.1 531.7 338.3Q533.6 337.5 536.2 337.5ZM550.3 362.2L550.3 355.7L534.1 355.7L534.1 362.2L550.3 362.2ZM550.2 351.0L550.2 329.2L553.6 329.2L553.6 338.8L558.9 338.8L558.9 341.6L553.6 341.6L553.6 351.0L550.2 351.0ZM525.6 335.7L525.6 333.0L534.6 333.0L534.6 328.9L537.9 328.9L537.9 333.0L546.9 333.0L546.9 335.7L525.6 335.7ZM536.2 340.0L536.2 340.0Q533.8 340.0 532.3 341.1Q530.8 342.1 530.8 343.9Q530.8 345.7 532.3 346.8Q533.8 347.8 536.2 347.8L536.2 347.8Q538.7 347.8 540.2 346.8Q541.7 345.7 541.7 343.9Q541.7 342.1 540.2 341.1Q538.7 340.0 536.2 340.0ZM572.3 336.2L572.3 333.5L579.1 333.5Q579.1 336.4 579.0 339.6L579.0 339.6Q578.8 341.4 578.6 343.4L578.6 343.4L583.3 343.4L583.3 330.1L586.4 330.1L586.4 363.5L583.3 363.5L583.3 346.1L578.2 346.1Q578.2 346.2 578.2 346.2L578.2 346.2Q577.6 349.6 576.4 352.9Q575.1 356.2 573.0 359.1L573.0 359.1L570.4 357.6Q572.0 355.4 573.1 353.1Q574.2 350.7 574.8 348.2Q575.5 345.7 575.8 343.2Q576.1 340.8 576.2 338.4L576.2 338.4Q576.2 337.3 576.2 336.2L576.2 336.2L572.3 336.2ZM590.0 365.4L590.0 329.2L593.2 329.2L593.2 365.4L590.0 365.4ZM563.1 336.2L563.1 333.5L571.2 333.5Q571.2 336.4 570.9 339.4Q570.6 342.4 570.0 345.4Q569.3 348.4 568.1 351.3Q566.9 354.2 564.9 356.8L564.9 356.8L562.3 355.3Q564.2 352.9 565.4 350.3Q566.6 347.7 567.2 344.9Q567.8 342.2 568.1 339.4L568.1 339.4Q568.2 337.8 568.3 336.2L568.3 336.2L563.1 336.2ZM609.7 340.6L609.7 340.6Q612.3 340.6 614.3 341.7Q616.2 342.8 617.4 344.7Q618.5 346.5 618.5 349.0Q618.5 351.4 617.4 353.3Q616.2 355.2 614.3 356.2Q612.3 357.3 609.7 357.3Q607.2 357.3 605.2 356.2Q603.2 355.2 602.0 353.3Q600.9 351.4 600.9 349.0Q600.9 346.5 602.0 344.7Q603.2 342.8 605.2 341.7Q607.2 340.6 609.7 340.6ZM623.6 365.4L623.6 329.2L626.9 329.2L626.9 344.0L632.8 344.0L632.8 346.8L626.9 346.8L626.9 365.4L623.6 365.4ZM609.7 343.4L609.7 343.4Q608.1 343.4 606.8 344.1Q605.5 344.8 604.8 346.1Q604.0 347.3 604.0 349.0Q604.0 350.6 604.8 351.9Q605.5 353.1 606.8 353.8Q608.1 354.5 609.7 354.5L609.7 354.5Q611.3 354.5 612.6 353.8Q613.9 353.1 614.6 351.9Q615.4 350.6 615.4 349.0Q615.4 347.3 614.6 346.1Q613.9 344.8 612.6 344.1Q611.3 343.4 609.7 343.4ZM598.9 337.7L598.9 335.0L608.0 335.0L608.0 329.6L611.3 329.6L611.3 335.0L620.2 335.0L620.2 337.7L598.9 337.7ZM640.3 342.7L640.3 330.5L643.6 330.5L643.6 340.0L664.9 340.0L664.9 342.7L640.3 342.7ZM640.0 364.5L640.0 353.9L643.4 353.9L643.4 361.8L665.1 361.8L665.1 364.5L640.0 364.5ZM635.8 350.3L635.8 347.6L668.6 347.6L668.6 350.3L635.8 350.3Z M686.3 347.4L686.3 330.8L710.6 330.8L710.6 333.5L689.6 333.5L689.6 337.7L709.8 337.7L709.8 340.3L689.6 340.3L689.6 344.7L711.0 344.7L711.0 347.4L686.3 347.4ZM681.9 353.8L681.9 351.0L714.7 351.0L714.7 353.8L699.9 353.8L699.9 365.4L696.6 365.4L696.6 353.8L681.9 353.8ZM719.4 335.6L719.4 332.9L739.0 332.9L739.0 335.6L731.0 335.6L731.0 340.2Q731.0 342.4 731.7 344.6Q732.4 346.8 733.6 348.8Q734.9 350.8 736.6 352.3Q738.3 353.9 740.2 354.9L740.2 354.9L738.4 357.5Q736.2 356.4 734.4 354.6Q732.6 352.8 731.2 350.5L731.2 350.5Q730.1 348.6 729.4 346.4L729.4 346.4Q728.6 348.9 727.4 351.0L727.4 351.0Q725.9 353.5 724.1 355.4Q722.2 357.3 720.1 358.4L720.1 358.4L718.2 355.8Q720.1 354.8 721.8 353.1Q723.5 351.5 724.8 349.3Q726.2 347.2 726.9 344.9Q727.7 342.5 727.7 340.2L727.7 340.2L727.7 335.6L719.4 335.6ZM743.2 365.4L743.2 329.2L746.6 329.2L746.6 343.8L752.5 343.8L752.5 346.6L746.6 346.6L746.6 365.4L743.2 365.4Z M789.6 356.4L789.6 329.2L793.0 329.2L793.0 340.9L798.2 340.9L798.2 343.7L793.0 343.7L793.0 356.4L789.6 356.4ZM770.1 364.6L770.1 353.9L773.4 353.9L773.4 361.8L794.2 361.8L794.2 364.6L770.1 364.6ZM772.2 347.8L772.2 340.0L775.5 340.0L775.5 347.7Q777.5 347.6 779.6 347.5L779.6 347.5Q783.6 347.2 787.2 346.8L787.2 346.8L787.4 349.2Q783.7 349.8 779.7 350.2Q775.7 350.5 771.9 350.6Q768.2 350.6 765.0 350.6L765.0 350.6L764.6 347.9Q767.8 347.9 771.7 347.8L771.7 347.8Q772.0 347.8 772.2 347.8L772.2 347.8ZM766.8 334.7L766.8 332.0L784.7 332.0L784.7 333.9Q784.7 335.7 784.6 338.4Q784.5 341.0 783.8 344.6L783.8 344.6L780.5 344.3Q781.2 340.7 781.4 338.2L781.4 338.2Q781.4 336.2 781.5 334.7L781.5 334.7L766.8 334.7ZM803.6 335.2L803.6 332.5L820.4 332.5L820.4 345.4L807.1 345.4L807.1 353.9Q810.0 353.9 812.7 353.8L812.7 353.8Q815.5 353.7 818.5 353.4Q821.4 353.1 824.6 352.6L824.6 352.6L824.9 355.3Q820.0 356.1 815.7 356.4Q811.4 356.6 806.7 356.6L806.7 356.6L803.7 356.6L803.7 342.8L817.0 342.8L817.0 335.2L803.6 335.2ZM828.0 365.4L828.0 329.2L831.3 329.2L831.3 365.4L828.0 365.4Z M850.8 332.8L850.8 330.3L877.3 330.3L877.3 332.8L871.8 332.8L871.8 339.7L877.2 339.7L877.2 342.3L850.9 342.3L850.9 339.7L856.2 339.7L856.2 332.8L850.8 332.8ZM851.7 353.6L851.7 351.1L876.2 351.1L876.2 359.1L855.0 359.1L855.0 362.4L877.3 362.4L877.3 365.0L851.8 365.0L851.8 356.7L873.0 356.7L873.0 353.6L851.7 353.6ZM847.7 348.0L847.7 345.3L880.4 345.3L880.4 348.0L847.7 348.0ZM859.5 332.8L859.5 339.7L868.5 339.7L868.5 332.8L859.5 332.8ZM911.8 338.6L911.8 329.2L915.0 329.2L915.0 353.8L911.8 353.8L911.8 341.4L907.0 341.4L907.0 350.7L903.8 350.7L903.8 329.9L907.0 329.9L907.0 338.6L911.8 338.6ZM886.1 334.7L886.1 332.0L899.7 332.0L899.7 342.2L889.4 342.2L889.4 347.5Q891.4 347.5 893.3 347.4L893.3 347.4Q895.4 347.3 897.5 347.1Q899.6 346.8 901.8 346.4L901.8 346.4L902.1 349.0Q899.8 349.5 897.7 349.7Q895.6 350.0 893.4 350.0Q891.1 350.1 888.5 350.1L888.5 350.1L886.2 350.1L886.2 339.6L896.5 339.6L896.5 334.7L886.1 334.7ZM901.3 353.1L901.3 352.2L904.6 352.2L904.6 353.1Q904.6 354.5 905.3 355.8Q906.0 357.1 907.1 358.2Q908.3 359.3 909.8 360.2Q911.4 361.1 913.2 361.7Q915.0 362.3 916.9 362.6L916.9 362.6L915.6 365.2Q912.8 364.8 910.4 363.7Q907.9 362.6 906.0 361.1L906.0 361.1Q904.1 359.6 903.0 357.6L903.0 357.6Q901.9 359.6 900.0 361.1L900.0 361.1Q898.0 362.6 895.6 363.7Q893.1 364.8 890.4 365.2L890.4 365.2L889.1 362.6Q891.0 362.3 892.8 361.7Q894.6 361.1 896.1 360.2Q897.7 359.3 898.8 358.2Q900.0 357.1 900.7 355.8Q901.3 354.5 901.3 353.1L901.3 353.1ZM921.3 350.1L921.3 347.4L936.0 347.4L936.0 343.3L924.5 343.3L924.5 340.6L929.8 340.6L929.8 333.0L924.4 333.0L924.4 330.3L950.9 330.3L950.9 333.0L945.4 333.0L945.4 340.6L950.8 340.6L950.8 343.3L939.3 343.3L939.3 347.4L954.0 347.4L954.0 350.1L921.3 350.1ZM925.3 364.9L925.3 353.5L950.0 353.5L950.0 364.9L925.3 364.9ZM946.8 362.2L946.8 356.1L928.6 356.1L928.6 362.2L946.8 362.2ZM933.1 333.0L933.1 340.6L942.1 340.6L942.1 333.0L933.1 333.0Z "/></svg>
